<svg width="24" height="24" viewBox="0 0 24 24" fill="none" xmlns="http://www.w3.org/2000/svg">
<path d="M11 3H4C3.46957 3 2.96086 3.21071 2.58579 3.58579C2.21071 3.96086 2 4.46957 2 5V19C2 19.5304 2.21071 20.0391 2.58579 20.4142C2.96086 20.7893 3.46957 21 4 21H18C18.5304 21 19.0391 20.7893 19.4142 20.4142C19.7893 20.0391 20 19.5304 20 19V12" stroke="white" stroke-width="2" stroke-linecap="round" stroke-linejoin="round"/>
<path d="M18.5 2.50001C18.8978 2.10219 19.4374 1.87869 20 1.87869C20.5626 1.87869 21.1022 2.10219 21.5 2.50001C21.8978 2.89784 22.1213 3.4374 22.1213 4.00001C22.1213 4.56262 21.8978 5.10219 21.5 5.50001L12 15L8 16L9 12L18.5 2.50001Z" stroke="white" stroke-width="2" stroke-linecap="round" stroke-linejoin="round"/>
</svg>
