<svg width="313" height="68" viewBox="0 0 313 68" fill="none" xmlns="http://www.w3.org/2000/svg">
<path d="M0.677557 32.8182H7.74716L13.2827 43.7741H13.5128L19.0483 32.8182H26.1179L16.5426 50.2557V59H10.2528V50.2557L0.677557 32.8182ZM51.7596 45.9091C51.7596 48.7898 51.2056 51.2315 50.0977 53.2344C48.9897 55.2372 47.4897 56.7585 45.5977 57.7983C43.7141 58.8381 41.6005 59.358 39.2567 59.358C36.9045 59.358 34.7866 58.8338 32.9031 57.7855C31.0195 56.7372 29.5238 55.2159 28.4158 53.2216C27.3164 51.2187 26.7667 48.7812 26.7667 45.9091C26.7667 43.0284 27.3164 40.5866 28.4158 38.5838C29.5238 36.581 31.0195 35.0597 32.9031 34.0199C34.7866 32.9801 36.9045 32.4602 39.2567 32.4602C41.6005 32.4602 43.7141 32.9801 45.5977 34.0199C47.4897 35.0597 48.9897 36.581 50.0977 38.5838C51.2056 40.5866 51.7596 43.0284 51.7596 45.9091ZM45.2908 45.9091C45.2908 44.2045 45.0479 42.7642 44.5621 41.5881C44.0849 40.4119 43.3945 39.5213 42.4911 38.9162C41.5962 38.3111 40.5181 38.0085 39.2567 38.0085C38.0039 38.0085 36.9258 38.3111 36.0224 38.9162C35.119 39.5213 34.4244 40.4119 33.9386 41.5881C33.4613 42.7642 33.2227 44.2045 33.2227 45.9091C33.2227 47.6136 33.4613 49.054 33.9386 50.2301C34.4244 51.4062 35.119 52.2969 36.0224 52.902C36.9258 53.5071 38.0039 53.8097 39.2567 53.8097C40.5181 53.8097 41.5962 53.5071 42.4911 52.902C43.3945 52.2969 44.0849 51.4062 44.5621 50.2301C45.0479 49.054 45.2908 47.6136 45.2908 45.9091ZM71.2937 32.8182H77.609V49.706C77.609 51.6577 77.1445 53.358 76.2156 54.8068C75.2866 56.2472 73.9911 57.3636 72.3292 58.1562C70.6673 58.9403 68.7369 59.3324 66.538 59.3324C64.3136 59.3324 62.3704 58.9403 60.7085 58.1562C59.0465 57.3636 57.7553 56.2472 56.8349 54.8068C55.9144 53.358 55.4542 51.6577 55.4542 49.706V32.8182H61.7823V49.1562C61.7823 50.0597 61.9783 50.8651 62.3704 51.5724C62.771 52.2798 63.3292 52.8338 64.0451 53.2344C64.761 53.6349 65.592 53.8352 66.538 53.8352C67.484 53.8352 68.3107 53.6349 69.0181 53.2344C69.734 52.8338 70.2923 52.2798 70.6928 51.5724C71.0934 50.8651 71.2937 50.0597 71.2937 49.1562V32.8182ZM81.5753 59V32.8182H92.3906C94.3509 32.8182 96.0426 33.1719 97.4659 33.8793C98.8977 34.5781 100.001 35.5838 100.777 36.8963C101.553 38.2003 101.94 39.7472 101.94 41.5369C101.94 43.3523 101.544 44.8949 100.751 46.1648C99.9588 47.4261 98.8338 48.3892 97.3764 49.054C95.919 49.7102 94.1932 50.0384 92.1989 50.0384H85.3594V45.0526H91.0227C91.9773 45.0526 92.7741 44.929 93.4134 44.6818C94.0611 44.4261 94.5511 44.0426 94.8835 43.5312C95.2159 43.0114 95.3821 42.3466 95.3821 41.5369C95.3821 40.7273 95.2159 40.0582 94.8835 39.5298C94.5511 38.9929 94.0611 38.5923 93.4134 38.3281C92.7656 38.0554 91.9688 37.919 91.0227 37.919H87.9034V59H81.5753ZM96.3153 47.0341L102.835 59H95.9318L89.5398 47.0341H96.3153ZM113.146 59V32.8182H123.961C125.921 32.8182 127.613 33.2017 129.036 33.9688C130.468 34.7273 131.572 35.7884 132.347 37.152C133.123 38.5071 133.511 40.0838 133.511 41.8821C133.511 43.6889 133.114 45.2699 132.322 46.625C131.538 47.9716 130.417 49.0156 128.96 49.7571C127.502 50.4986 125.772 50.8693 123.769 50.8693H117.096V45.8835H122.593C123.548 45.8835 124.344 45.7173 124.984 45.3849C125.631 45.0526 126.121 44.5881 126.454 43.9915C126.786 43.3864 126.952 42.6832 126.952 41.8821C126.952 41.0724 126.786 40.3736 126.454 39.7855C126.121 39.1889 125.631 38.7287 124.984 38.4048C124.336 38.081 123.539 37.919 122.593 37.919H119.474V59H113.146ZM136.63 59V32.8182H142.958V53.8608H153.85V59H136.63ZM163.141 59H156.34L165.174 32.8182H173.598L182.432 59H175.631L169.482 39.4148H169.277L163.141 59ZM162.233 48.696H176.449V53.5028H162.233V48.696ZM207.786 42.304H201.394C201.309 41.6477 201.134 41.0554 200.87 40.527C200.606 39.9986 200.256 39.5469 199.822 39.1719C199.387 38.7969 198.871 38.5114 198.275 38.3153C197.687 38.1108 197.035 38.0085 196.319 38.0085C195.049 38.0085 193.954 38.3196 193.033 38.9418C192.121 39.5639 191.418 40.4631 190.924 41.6392C190.438 42.8153 190.195 44.2386 190.195 45.9091C190.195 47.6477 190.442 49.1051 190.937 50.2812C191.44 51.4489 192.143 52.331 193.046 52.9276C193.958 53.5156 195.036 53.8097 196.281 53.8097C196.979 53.8097 197.614 53.7202 198.185 53.5412C198.765 53.3622 199.272 53.1023 199.707 52.7614C200.15 52.4119 200.512 51.9901 200.793 51.4957C201.083 50.9929 201.283 50.4261 201.394 49.7955L207.786 49.8338C207.675 50.9929 207.339 52.1349 206.776 53.2599C206.222 54.3849 205.46 55.4119 204.488 56.3409C203.516 57.2614 202.332 57.9943 200.934 58.5398C199.545 59.0852 197.951 59.358 196.153 59.358C193.783 59.358 191.661 58.8381 189.786 57.7983C187.92 56.75 186.445 55.2244 185.363 53.2216C184.281 51.2187 183.739 48.7812 183.739 45.9091C183.739 43.0284 184.289 40.5866 185.388 38.5838C186.488 36.581 187.975 35.0597 189.85 34.0199C191.725 32.9801 193.826 32.4602 196.153 32.4602C197.738 32.4602 199.204 32.6818 200.55 33.125C201.897 33.5597 203.082 34.1989 204.104 35.0426C205.127 35.8778 205.958 36.9048 206.597 38.1236C207.237 39.3423 207.633 40.7358 207.786 42.304ZM211.407 59V32.8182H229.663V37.9574H217.735V43.3267H228.73V48.4787H217.735V53.8608H229.663V59H211.407Z" fill="white"/>
<path d="M211.511 4.45455H213.528L217.562 11.2443H217.733L221.767 4.45455H223.784L218.528 13.0057V19H216.767V13.0057L211.511 4.45455ZM237.651 11.7273C237.651 13.2614 237.374 14.5871 236.82 15.7045C236.266 16.822 235.506 17.6837 234.54 18.2898C233.575 18.8958 232.471 19.1989 231.231 19.1989C229.99 19.1989 228.887 18.8958 227.921 18.2898C226.955 17.6837 226.195 16.822 225.641 15.7045C225.087 14.5871 224.81 13.2614 224.81 11.7273C224.81 10.1932 225.087 8.86742 225.641 7.75C226.195 6.63258 226.955 5.77083 227.921 5.16477C228.887 4.55871 229.99 4.25568 231.231 4.25568C232.471 4.25568 233.575 4.55871 234.54 5.16477C235.506 5.77083 236.266 6.63258 236.82 7.75C237.374 8.86742 237.651 10.1932 237.651 11.7273ZM235.947 11.7273C235.947 10.4678 235.736 9.40483 235.315 8.53835C234.898 7.67188 234.332 7.0161 233.617 6.57102C232.907 6.12595 232.112 5.90341 231.231 5.90341C230.35 5.90341 229.552 6.12595 228.837 6.57102C228.127 7.0161 227.561 7.67188 227.14 8.53835C226.723 9.40483 226.515 10.4678 226.515 11.7273C226.515 12.9867 226.723 14.0497 227.14 14.9162C227.561 15.7827 228.127 16.4384 228.837 16.8835C229.552 17.3286 230.35 17.5511 231.231 17.5511C232.112 17.5511 232.907 17.3286 233.617 16.8835C234.332 16.4384 234.898 15.7827 235.315 14.9162C235.736 14.0497 235.947 12.9867 235.947 11.7273ZM250.158 4.45455H251.92V14.0852C251.92 15.0795 251.685 15.9673 251.217 16.7486C250.753 17.5251 250.097 18.1383 249.249 18.5881C248.402 19.0331 247.407 19.2557 246.266 19.2557C245.125 19.2557 244.131 19.0331 243.283 18.5881C242.436 18.1383 241.778 17.5251 241.309 16.7486C240.845 15.9673 240.613 15.0795 240.613 14.0852V4.45455H242.374V13.9432C242.374 14.6534 242.531 15.2855 242.843 15.8395C243.156 16.3887 243.601 16.822 244.178 17.1392C244.761 17.4517 245.457 17.608 246.266 17.608C247.076 17.608 247.772 17.4517 248.354 17.1392C248.937 16.822 249.382 16.3887 249.69 15.8395C250.002 15.2855 250.158 14.6534 250.158 13.9432V4.45455ZM255.437 19V4.45455H260.352C261.488 4.45455 262.421 4.64867 263.15 5.03693C263.879 5.42045 264.419 5.94839 264.77 6.62074C265.12 7.29309 265.295 8.05777 265.295 8.91477C265.295 9.77178 265.12 10.5317 264.77 11.1946C264.419 11.8575 263.882 12.3783 263.157 12.7571C262.433 13.1312 261.507 13.3182 260.38 13.3182H256.403V11.7273H260.324C261.1 11.7273 261.725 11.6136 262.199 11.3864C262.677 11.1591 263.022 10.8371 263.235 10.4205C263.453 9.99905 263.562 9.49716 263.562 8.91477C263.562 8.33239 263.453 7.82339 263.235 7.38778C263.018 6.95218 262.67 6.616 262.191 6.37926C261.713 6.13778 261.081 6.01705 260.295 6.01705H257.199V19H255.437ZM262.284 12.4659L265.863 19H263.818L260.295 12.4659H262.284ZM273.855 19V4.45455H275.616V17.4375H282.378V19H273.855ZM286.866 4.45455V19H285.105V4.45455H286.866ZM290.398 19V4.45455H299.12V6.01705H292.159V10.9318H298.466V12.4943H292.159V19H290.398ZM302.136 19V4.45455H310.915V6.01705H303.898V10.9318H310.46V12.4943H303.898V17.4375H311.028V19H302.136Z" fill="white"/>
</svg>
