<svg width="32" height="29" viewBox="0 0 32 29" fill="none" xmlns="http://www.w3.org/2000/svg">
<path d="M28.5234 3.53086C27.7998 2.80695 26.9407 2.23269 25.9951 1.84089C25.0495 1.4491 24.0361 1.24744 23.0125 1.24744C21.989 1.24744 20.9755 1.4491 20.0299 1.84089C19.0844 2.23269 18.2253 2.80695 17.5017 3.53086L16 5.03252L14.4984 3.53086C13.0368 2.06929 11.0545 1.24819 8.98753 1.24819C6.92056 1.24819 4.93826 2.06929 3.47669 3.53086C2.01513 4.99242 1.19403 6.97473 1.19403 9.04169C1.19403 11.1087 2.01513 13.091 3.47669 14.5525L4.97836 16.0542L16 27.0759L27.0217 16.0542L28.5234 14.5525C29.2473 13.829 29.8215 12.9698 30.2133 12.0243C30.6051 11.0787 30.8068 10.0652 30.8068 9.04169C30.8068 8.01816 30.6051 7.00467 30.2133 6.0591C29.8215 5.11354 29.2473 4.25443 28.5234 3.53086Z" stroke="black" stroke-width="2" stroke-linecap="round" stroke-linejoin="round"/>
</svg>
